<?xml version="1.0" encoding="utf-8"?>
<!-- Generator: Adobe Illustrator 16.0.0, SVG Export Plug-In . SVG Version: 6.00 Build 0)  -->
<!DOCTYPE svg PUBLIC "-//W3C//DTD SVG 1.1//EN" "http://www.w3.org/Graphics/SVG/1.1/DTD/svg11.dtd">
<svg version="1.1" id="icons" xmlns="http://www.w3.org/2000/svg" xmlns:xlink="http://www.w3.org/1999/xlink" x="0px" y="0px"
	 width="24px" height="24px" viewBox="0 0 24 24" enable-background="new 0 0 24 24" xml:space="preserve">
<path fill="#757575" d="M22.287,3.301L22.27,3.283l-0.006,0.006C21.879,3.108,21.453,3,21,3H3C2.59,3,2.2,3.084,1.844,3.232
	L1.813,3.203L1.72,3.299C0.707,3.781,0,4.806,0,6v12c0,1.654,1.346,3,3,3h18c1.654,0,3-1.346,3-3V6
	C24,4.809,23.296,3.785,22.287,3.301z M16.768,11.439L22,6.34v10.195L16.768,11.439z M20.509,5l-7.665,7.471
	c-0.412,0.404-1.112,0.402-1.526-0.001L3.656,5H20.509z M2,16.705V6.179l5.339,5.206L2,16.705z M3,19
	c-0.138,0-0.27-0.028-0.39-0.079l6.161-6.14L9.92,13.9c0.597,0.582,1.379,0.873,2.161,0.873s1.564-0.291,2.16-0.871l1.095-1.066
	l6.169,6.007C21.354,18.934,21.188,19,21,19H3z"/>
</svg>
