<?xml version="1.0" encoding="utf-8"?>
<!-- Generator: Adobe Illustrator 15.0.0, SVG Export Plug-In . SVG Version: 6.00 Build 0)  -->
<!DOCTYPE svg PUBLIC "-//W3C//DTD SVG 1.1//EN" "http://www.w3.org/Graphics/SVG/1.1/DTD/svg11.dtd">
<svg version="1.1" xmlns="http://www.w3.org/2000/svg" xmlns:xlink="http://www.w3.org/1999/xlink" x="0px" y="0px" width="24px"
	 height="24px" viewBox="0 0 24 24" enable-background="new 0 0 24 24" xml:space="preserve">
<g id="icons">
	<g>
		<path fill="#757575" d="M12,1C5.935,1,1,5.935,1,12c0,6.066,4.935,11,11,11c6.064,0,11-4.934,11-11C23,5.935,18.064,1,12,1z
			 M12,21c-4.963,0-9-4.038-9-9s4.037-9,9-9s9,4.038,9,9S16.963,21,12,21z"/>
		<circle display="none" fill="#757575" cx="8" cy="12" r="1"/>
		<circle display="none" fill="#757575" cx="12" cy="12" r="1"/>
		<circle fill="#757575" cx="12" cy="6.372" r="1.61"/>
	</g>
</g>
<g id="Layer_2">
	<g>
		<path fill="#757575" d="M13.353,16.629h1.037c0.1,0.193,0.149,0.41,0.149,0.65c0,0.205-0.043,0.348-0.127,0.43
			c-0.086,0.082-0.251,0.123-0.497,0.123H9.697c-0.1-0.246-0.149-0.477-0.149-0.693c0-0.182,0.041-0.312,0.123-0.392
			s0.214-0.118,0.396-0.118h0.721c0.029-0.75,0.044-1.551,0.044-2.4c0-1.295-0.01-2.154-0.031-2.579s-0.066-0.735-0.136-0.932
			s-0.179-0.319-0.325-0.369s-0.36-0.075-0.642-0.075c-0.1-0.164-0.149-0.354-0.149-0.571c0-0.328,0.135-0.53,0.404-0.606
			s0.817-0.114,1.644-0.114c0.621,0,1.044,0.023,1.27,0.07c0.225,0.047,0.354,0.139,0.387,0.277c0.031,0.138,0.048,0.33,0.048,0.576
			v4.324C13.306,15.078,13.323,15.879,13.353,16.629z"/>
	</g>
</g>
</svg>
