<?xml version="1.0" encoding="utf-8"?>
<!-- Generator: Adobe Illustrator 15.0.0, SVG Export Plug-In . SVG Version: 6.00 Build 0)  -->
<!DOCTYPE svg PUBLIC "-//W3C//DTD SVG 1.1 Tiny//EN" "http://www.w3.org/Graphics/SVG/1.1/DTD/svg11-tiny.dtd">
<svg version="1.1" baseProfile="tiny" id="Layer_1" xmlns="http://www.w3.org/2000/svg" xmlns:xlink="http://www.w3.org/1999/xlink"
	 x="0px" y="0px" width="200px" height="70px" viewBox="0 0 200 70" overflow="inherit" xml:space="preserve">
<g>
	<path fill="none" stroke="#1E509B" stroke-width="4" stroke-miterlimit="10" d="M197,17.969C197,10.966,193.405,7,186.402,7H21.57
		C11.004,7,3,15.856,3,26.421v16.906C3,53.894,11.004,63,21.57,63h164.832C193.405,63,197,58.782,197,51.779V17.969z"/>
	<g>
		<path fill="#1E509B" d="M15.675,49.5V21.911c0-1.14,0.41-2.111,1.23-2.914c0.82-0.802,1.782-1.203,2.887-1.203h27.16
			c1.14,0,2.112,0.401,2.914,1.203c0.802,0.802,1.203,1.773,1.203,2.914V49.5c0,1.141-0.401,2.11-1.203,2.914
			c-0.802,0.801-1.774,1.202-2.914,1.202c-1.141,0-2.121-0.401-2.94-1.202c-0.82-0.804-1.23-1.773-1.23-2.914V28.755
			c0-0.748-0.259-1.381-0.774-1.898c-0.517-0.516-1.132-0.775-1.845-0.775s-1.336,0.259-1.871,0.775
			c-0.535,0.517-0.802,1.15-0.802,1.898v7.913c0,1.141-0.401,2.112-1.203,2.914c-0.802,0.801-1.774,1.203-2.914,1.203
			c-1.142,0-2.112-0.402-2.914-1.203c-0.802-0.802-1.203-1.773-1.203-2.914v-7.913c0-0.748-0.268-1.381-0.802-1.898
			c-0.535-0.516-1.159-0.775-1.872-0.775c-0.713,0-1.329,0.259-1.844,0.775c-0.518,0.517-0.775,1.15-0.775,1.898V49.5
			c0,1.141-0.41,2.11-1.229,2.914c-0.82,0.801-1.8,1.202-2.941,1.202s-2.112-0.401-2.914-1.202
			C16.076,51.61,15.675,50.641,15.675,49.5z"/>
		<path fill="#1E509B" d="M54.009,19.879c0-1.14,0.401-2.112,1.203-2.914c0.802-0.802,1.772-1.203,2.914-1.203
			c1.14,0,2.121,0.401,2.941,1.203c0.819,0.802,1.229,1.774,1.229,2.914v1.23c0,0.714,0.258,1.336,0.776,1.871
			c0.516,0.535,1.149,0.802,1.898,0.802h8.447c1.14,0,2.111,0.401,2.914,1.203c0.802,0.802,1.203,1.773,1.203,2.914
			c0,1.141-0.401,2.112-1.203,2.914c-0.802,0.802-1.773,1.203-2.914,1.203H64.97c-0.749,0-1.383,0.267-1.898,0.802
			c-0.518,0.535-0.776,1.158-0.776,1.871v7.593c0,0.713,0.258,1.328,0.776,1.844c0.516,0.519,1.149,0.775,1.898,0.775h0.106
			c1.14,0,2.12,0.41,2.94,1.229c0.82,0.822,1.23,1.802,1.23,2.941c0,1.142-0.411,2.112-1.23,2.914c-0.82,0.802-1.8,1.204-2.94,1.204
			h-6.951c-1.105,0-2.067-0.411-2.887-1.23c-0.821-0.819-1.23-1.783-1.23-2.888V19.879z"/>
		<path fill="#1E509B" d="M89.883,32.765l5.399-7.646c0.82-1.177,1.925-1.765,3.315-1.765c1.104,0,2.048,0.393,2.833,1.177
			c0.783,0.784,1.177,1.729,1.177,2.833c0,0.855-0.232,1.604-0.696,2.247L86.194,51.853c-0.82,1.177-1.96,1.764-3.422,1.764
			c-1.141,0-2.111-0.401-2.914-1.202c-0.802-0.804-1.203-1.773-1.203-2.914V27.472c0-1.141,0.401-2.113,1.203-2.915
			c0.802-0.802,1.773-1.203,2.914-1.203s2.121,0.401,2.941,1.203c0.819,0.802,1.229,1.773,1.229,2.915v4.384
			c0,1.069,0.535,1.604,1.604,1.604C89.116,33.46,89.562,33.228,89.883,32.765z"/>
		<path fill="#F5BE00" d="M115.066,26.082c-0.714,0-1.329,0.259-1.846,0.775c-0.517,0.517-0.775,1.15-0.775,1.898V49.5
			c0,1.141-0.409,2.11-1.229,2.914c-0.819,0.801-1.8,1.202-2.939,1.202c-1.142,0-2.113-0.401-2.915-1.202
			c-0.803-0.804-1.202-1.773-1.202-2.914V21.911c0-1.14,0.409-2.111,1.229-2.914c0.819-0.802,1.781-1.203,2.888-1.203h21.171
			c1.14,0,2.112,0.401,2.914,1.203c0.802,0.802,1.204,1.773,1.204,2.914V49.5c0,1.141-0.402,2.11-1.204,2.914
			c-0.802,0.801-1.774,1.202-2.914,1.202c-1.142,0-2.121-0.401-2.941-1.202c-0.819-0.804-1.229-1.773-1.229-2.914V28.755
			c0-0.748-0.258-1.381-0.775-1.898c-0.517-0.516-1.132-0.775-1.844-0.775H115.066z"/>
		<path fill="#F5BE00" d="M140.621,23.783h15.29c1.142,0,2.112,0.401,2.914,1.203c0.803,0.802,1.203,1.773,1.203,2.914v8.341
			c0,1.105-0.4,2.068-1.203,2.888c-0.802,0.82-1.772,1.229-2.914,1.229c-1.141,0-2.12-0.4-2.939-1.203
			c-0.821-0.802-1.229-1.773-1.229-2.914v-1.551c0-0.713-0.26-1.328-0.775-1.845c-0.518-0.515-1.148-0.774-1.898-0.774h-1.657
			c-0.713,0-1.327,0.259-1.845,0.774c-0.517,0.518-0.775,1.15-0.775,1.898v7.486c0,0.748,0.259,1.382,0.775,1.897
			c0.518,0.519,1.132,0.775,1.845,0.775h8.5c1.142,0,2.112,0.41,2.914,1.229c0.803,0.822,1.203,1.802,1.203,2.941
			c0,1.104-0.4,2.068-1.203,2.888c-0.802,0.819-1.772,1.23-2.914,1.23h-15.29c-1.106,0-2.067-0.411-2.887-1.23
			c-0.82-0.819-1.229-1.783-1.229-2.888V27.899c0-1.14,0.409-2.112,1.229-2.914C138.554,24.184,139.515,23.783,140.621,23.783z"/>
		<path fill="#F5BE00" d="M162.434,19.879c0-1.14,0.4-2.112,1.204-2.914c0.802-0.802,1.771-1.203,2.913-1.203
			c1.141,0,2.119,0.401,2.939,1.203c0.82,0.802,1.231,1.774,1.231,2.914v1.23c0,0.714,0.257,1.336,0.774,1.871
			c0.517,0.535,1.148,0.802,1.898,0.802h8.446c1.142,0,2.112,0.401,2.914,1.203c0.803,0.802,1.202,1.773,1.202,2.914
			c0,1.141-0.399,2.112-1.202,2.914c-0.802,0.802-1.772,1.203-2.914,1.203h-8.446c-0.75,0-1.382,0.267-1.898,0.802
			c-0.518,0.535-0.774,1.158-0.774,1.871v7.593c0,0.713,0.257,1.328,0.774,1.844c0.517,0.519,1.148,0.775,1.898,0.775h0.105
			c1.141,0,2.121,0.41,2.941,1.229c0.819,0.822,1.23,1.802,1.23,2.941c0,1.142-0.411,2.112-1.23,2.914
			c-0.82,0.802-1.801,1.204-2.941,1.204h-6.949c-1.106,0-2.067-0.411-2.888-1.23c-0.819-0.819-1.229-1.783-1.229-2.888V19.879z"/>
	</g>
</g>
</svg>
